<?xml version="1.0" standalone="no"?>
<!DOCTYPE svg PUBLIC "-//W3C//DTD SVG 20010904//EN"
 "http://www.w3.org/TR/2001/REC-SVG-20010904/DTD/svg10.dtd">
<svg version="1.0" xmlns="http://www.w3.org/2000/svg"
 width="600.000000pt" height="600.000000pt" viewBox="0 0 600.000000 600.000000"
 preserveAspectRatio="xMidYMid meet">
<metadata>
Created by potrace 1.11, written by Peter Selinger 2001-2013
</metadata>
<g transform="translate(0.000000,600.000000) scale(0.100000,-0.100000)"
fill="#000000" stroke="none">
<path d="M2530 3250 c-286 -37 -510 -183 -619 -403 -56 -114 -74 -197 -74
-342 1 -153 20 -245 77 -360 106 -213 262 -334 651 -504 258 -112 275 -120
346 -166 82 -53 124 -108 139 -180 31 -147 -50 -267 -213 -316 -95 -29 -282
-24 -372 11 -121 46 -227 133 -302 247 -20 29 -40 53 -44 53 -17 0 -449 -255
-449 -265 0 -27 111 -179 184 -251 214 -213 482 -314 836 -314 390 0 689 144
837 402 66 114 99 275 90 436 -12 202 -70 349 -189 477 -124 133 -264 221
-548 345 -346 151 -430 203 -471 295 -25 53 -25 156 0 210 20 46 76 98 125
119 82 34 215 27 299 -15 48 -25 116 -92 153 -150 14 -24 28 -46 30 -48 5 -6
434 271 434 281 0 23 -109 164 -174 225 -113 106 -227 165 -386 198 -86 18
-277 26 -360 15z"/>
<path d="M4920 2288 c0 -599 -4 -1000 -10 -1043 -26 -175 -114 -255 -285 -255
-136 0 -229 60 -321 206 -26 41 -51 74 -55 74 -7 0 -438 -256 -449 -267 -9 -8
55 -115 116 -192 179 -227 438 -332 783 -318 405 16 649 200 749 564 l27 98 0
1050 0 1050 -277 3 -278 2 0 -972z"/>
</g>
</svg>
